# xmcd CD database file
#
# Track frame offsets:
#	150
#	19568
#	44305
#	60439
#	76799
#	94467
#	114215
#	128599
#	147803
#	170369
#	190408
#
# Disc length: 2857 seconds
#
# Revision: 8
# Processed by: cddbd v1.5.2PL0 Copyright (c) Steve Scherf et al.
# Submitted via: CDex 1.70beta2
#
DISCID=820b270b
DTITLE=张学友 - 學友熱 (Jacky Fever)
DYEAR=2001
DGENRE=Chinese
TTITLE0=天氣這麼熱
TTITLE1=Let Me Go
TTITLE2=我真的受傷了
TTITLE3=如果這都不算愛
TTITLE4=想的都是他
TTITLE5=結束不是我要的結果
TTITLE6=Love
TTITLE7=算命
TTITLE8=我也和你一樣
TTITLE9=看開些吧女孩
TTITLE10=放逐
EXTD=YEAR: 2001
EXTT0=
EXTT1=
EXTT2=
EXTT3=
EXTT4=
EXTT5=
EXTT6=
EXTT7=
EXTT8=
EXTT9=
EXTT10=
PLAYORDER=
